<svg width="25" height="25" viewBox="0 0 25 25" fill="none" xmlns="http://www.w3.org/2000/svg">
<path d="M24.0011 11.271C23.8565 8.93102 23.0303 6.68451 21.6243 4.80843C20.2184 2.93234 18.2941 1.50869 16.0888 0.712996C13.8836 -0.0827016 11.4936 -0.215665 9.21369 0.330497C6.93375 0.876659 4.86347 2.07807 3.25808 3.78662C1.65269 5.49517 0.582369 7.63616 0.179071 9.94566C-0.224228 12.2552 0.0571252 14.6322 0.988445 16.7837C1.91976 18.9352 3.46034 20.7672 5.42024 22.0538C7.38014 23.3403 9.67369 24.0252 12.0181 24.024H19.0011C20.3268 24.0227 21.5978 23.4955 22.5352 22.5581C23.4726 21.6207 23.9998 20.3497 24.0011 19.024V11.271ZM22.0011 19.024C22.0011 19.8196 21.6851 20.5827 21.1224 21.1453C20.5598 21.7079 19.7968 22.024 19.0011 22.024H12.0181C10.6071 22.0234 9.21197 21.7253 7.92383 21.1493C6.63568 20.5733 5.4834 19.7322 4.54213 18.681C3.5963 17.6303 2.88606 16.3895 2.45902 15.0418C2.03199 13.6941 1.89803 12.2707 2.06613 10.867C2.33156 8.65294 3.32632 6.59019 4.89357 5.00392C6.46082 3.41766 8.51143 2.39811 10.7221 2.106C11.1534 2.05195 11.5875 2.02457 12.0221 2.024C14.3526 2.01764 16.6109 2.8319 18.4011 4.324C19.4467 5.19294 20.3048 6.26515 20.9237 7.47563C21.5425 8.68611 21.909 10.0096 22.0011 11.366V19.024Z" fill="black"/>
<path d="M8.0011 9.02399H12.0011C12.2663 9.02399 12.5207 8.91863 12.7082 8.73109C12.8957 8.54356 13.0011 8.2892 13.0011 8.02399C13.0011 7.75877 12.8957 7.50442 12.7082 7.31688C12.5207 7.12934 12.2663 7.02399 12.0011 7.02399H8.0011C7.73588 7.02399 7.48153 7.12934 7.29399 7.31688C7.10646 7.50442 7.0011 7.75877 7.0011 8.02399C7.0011 8.2892 7.10646 8.54356 7.29399 8.73109C7.48153 8.91863 7.73588 9.02399 8.0011 9.02399Z" fill="black"/>
<path d="M16.0011 11.024H8.0011C7.73588 11.024 7.48153 11.1293 7.29399 11.3169C7.10646 11.5044 7.0011 11.7588 7.0011 12.024C7.0011 12.2892 7.10646 12.5436 7.29399 12.7311C7.48153 12.9186 7.73588 13.024 8.0011 13.024H16.0011C16.2663 13.024 16.5207 12.9186 16.7082 12.7311C16.8957 12.5436 17.0011 12.2892 17.0011 12.024C17.0011 11.7588 16.8957 11.5044 16.7082 11.3169C16.5207 11.1293 16.2663 11.024 16.0011 11.024Z" fill="black"/>
<path d="M16.0011 15.024H8.0011C7.73588 15.024 7.48153 15.1293 7.29399 15.3169C7.10646 15.5044 7.0011 15.7588 7.0011 16.024C7.0011 16.2892 7.10646 16.5436 7.29399 16.7311C7.48153 16.9186 7.73588 17.024 8.0011 17.024H16.0011C16.2663 17.024 16.5207 16.9186 16.7082 16.7311C16.8957 16.5436 17.0011 16.2892 17.0011 16.024C17.0011 15.7588 16.8957 15.5044 16.7082 15.3169C16.5207 15.1293 16.2663 15.024 16.0011 15.024Z" fill="black"/>
</svg>
