<svg width="25" height="25" viewBox="0 0 25 25" fill="none" xmlns="http://www.w3.org/2000/svg">
<path d="M7.27134 2.07098C7.00071 2.07905 6.74386 2.19219 6.55519 2.38637L2.38852 6.55502C2.29152 6.65179 2.21457 6.76669 2.16206 6.89324C2.10955 7.0198 2.08252 7.15548 2.08252 7.29249C2.08252 7.42951 2.10955 7.56519 2.16206 7.69174C2.21457 7.8183 2.29152 7.93319 2.38852 8.02996L6.55519 12.1987C6.65145 12.2984 6.76664 12.3779 6.89401 12.4325C7.02138 12.4872 7.15836 12.5159 7.29695 12.5169C7.43553 12.5179 7.57293 12.4913 7.70109 12.4385C7.82925 12.3858 7.94561 12.3079 8.04333 12.2097C8.14106 12.1114 8.21819 11.9947 8.27022 11.8663C8.32225 11.7378 8.34813 11.6002 8.34634 11.4616C8.34455 11.323 8.31512 11.1862 8.25979 11.0591C8.20446 10.9321 8.12433 10.8173 8.0241 10.7216L5.63763 8.33117H21.873C22.1495 8.33117 22.4147 8.2213 22.6103 8.02575C22.8058 7.83021 22.9157 7.56495 22.9157 7.28841C22.9157 7.01187 22.8058 6.74672 22.6103 6.55118C22.4147 6.35564 22.1495 6.24576 21.873 6.24576H5.64781L8.0241 3.86335C8.1758 3.71753 8.27978 3.52911 8.32236 3.32304C8.36494 3.11698 8.34412 2.90285 8.26265 2.70885C8.18117 2.51484 8.04285 2.35006 7.8659 2.23619C7.68895 2.12232 7.48167 2.06476 7.27134 2.07098ZM17.6982 12.4896C17.4921 12.4913 17.2912 12.554 17.1208 12.6698C16.9505 12.7857 16.8183 12.9495 16.741 13.1405C16.6636 13.3314 16.6447 13.5411 16.6865 13.7429C16.7284 13.9446 16.8291 14.1294 16.9759 14.2739L19.3665 16.6664H3.12705C2.85473 16.6724 2.59557 16.7848 2.40509 16.9795C2.21461 17.1742 2.10795 17.4357 2.10795 17.7081C2.10795 17.9805 2.21461 18.2421 2.40509 18.4368C2.59557 18.6315 2.85473 18.7438 3.12705 18.7498H19.3604L16.9759 21.1404C16.8669 21.2338 16.7783 21.3486 16.7158 21.4779C16.6533 21.6071 16.6181 21.748 16.6126 21.8914C16.6071 22.0349 16.6312 22.1779 16.6836 22.3116C16.736 22.4453 16.8154 22.5668 16.917 22.6683C17.0185 22.7698 17.1399 22.8493 17.2736 22.9016C17.4072 22.954 17.5503 22.9782 17.6938 22.9726C17.8373 22.9671 17.978 22.932 18.1073 22.8694C18.2365 22.8069 18.3514 22.7184 18.4448 22.6093L22.6115 18.4426C22.8055 18.2474 22.9145 17.9833 22.9145 17.7081C22.9145 17.4329 22.8055 17.1688 22.6115 16.9737L18.4448 12.805C18.3478 12.7052 18.2317 12.6258 18.1034 12.5717C17.9752 12.5175 17.8374 12.4896 17.6982 12.4896Z" fill="black"/>
</svg>
