<svg width="24" height="25" viewBox="0 0 24 25" fill="none" xmlns="http://www.w3.org/2000/svg">
<path d="M24.0011 11.271C23.8565 8.93102 23.0303 6.68451 21.6243 4.80843C20.2184 2.93234 18.2941 1.50869 16.0888 0.712996C13.8836 -0.0827016 11.4936 -0.215665 9.21369 0.330497C6.93375 0.876659 4.86347 2.07807 3.25808 3.78662C1.65269 5.49517 0.582369 7.63616 0.179071 9.94566C-0.224228 12.2552 0.0571252 14.6322 0.988445 16.7837C1.91976 18.9352 3.46034 20.7672 5.42024 22.0538C7.38014 23.3403 9.67369 24.0252 12.0181 24.024H19.0011C20.3268 24.0227 21.5978 23.4955 22.5352 22.5581C23.4726 21.6207 23.9998 20.3497 24.0011 19.024V11.271ZM22.0011 19.024C22.0011 19.8196 21.6851 20.5827 21.1224 21.1453C20.5598 21.7079 19.7968 22.024 19.0011 22.024H12.0181C10.6071 22.0234 9.21197 21.7253 7.92383 21.1493C6.63568 20.5733 5.4834 19.7322 4.54213 18.681C3.5963 17.6303 2.88606 16.3895 2.45902 15.0418C2.03199 13.6941 1.89803 12.2707 2.06613 10.867C2.33156 8.65294 3.32632 6.59019 4.89357 5.00392C6.46082 3.41766 8.51143 2.39811 10.7221 2.106C11.1534 2.05195 11.5875 2.02457 12.0221 2.024C14.3526 2.01764 16.6109 2.8319 18.4011 4.324C19.4467 5.19294 20.3048 6.26515 20.9237 7.47563C21.5425 8.68611 21.909 10.0096 22.0011 11.366V19.024Z" fill="#5E81F4"/>
<path d="M8.00098 9.024H12.001C12.2662 9.024 12.5205 8.91865 12.7081 8.73111C12.8956 8.54357 13.001 8.28922 13.001 8.024C13.001 7.75879 12.8956 7.50443 12.7081 7.3169C12.5205 7.12936 12.2662 7.024 12.001 7.024H8.00098C7.73576 7.024 7.48141 7.12936 7.29387 7.3169C7.10633 7.50443 7.00098 7.75879 7.00098 8.024C7.00098 8.28922 7.10633 8.54357 7.29387 8.73111C7.48141 8.91865 7.73576 9.024 8.00098 9.024Z" fill="#5E81F4"/>
<path d="M16.001 11.024H8.00098C7.73576 11.024 7.48141 11.1294 7.29387 11.3169C7.10633 11.5044 7.00098 11.7588 7.00098 12.024C7.00098 12.2892 7.10633 12.5436 7.29387 12.7311C7.48141 12.9186 7.73576 13.024 8.00098 13.024H16.001C16.2662 13.024 16.5205 12.9186 16.7081 12.7311C16.8956 12.5436 17.001 12.2892 17.001 12.024C17.001 11.7588 16.8956 11.5044 16.7081 11.3169C16.5205 11.1294 16.2662 11.024 16.001 11.024Z" fill="#5E81F4"/>
<path d="M16.001 15.024H8.00098C7.73576 15.024 7.48141 15.1294 7.29387 15.3169C7.10633 15.5044 7.00098 15.7588 7.00098 16.024C7.00098 16.2892 7.10633 16.5436 7.29387 16.7311C7.48141 16.9186 7.73576 17.024 8.00098 17.024H16.001C16.2662 17.024 16.5205 16.9186 16.7081 16.7311C16.8956 16.5436 17.001 16.2892 17.001 16.024C17.001 15.7588 16.8956 15.5044 16.7081 15.3169C16.5205 15.1294 16.2662 15.024 16.001 15.024Z" fill="#5E81F4"/>
</svg>
