<svg width="23" height="23" viewBox="0 0 23 23" fill="none" xmlns="http://www.w3.org/2000/svg">
<path d="M6.07407 0.67743C5.79324 0.685799 5.52669 0.803208 5.3309 1.00472L1.00701 5.33068C0.906345 5.4311 0.826483 5.55033 0.771992 5.68166C0.717501 5.81299 0.689453 5.95379 0.689453 6.09598C0.689453 6.23816 0.717501 6.37896 0.771992 6.51029C0.826483 6.64163 0.906345 6.76085 1.00701 6.86127L5.3309 11.1874C5.4308 11.2908 5.55033 11.3733 5.68251 11.43C5.81468 11.4867 5.95684 11.5165 6.10065 11.5175C6.24447 11.5186 6.38705 11.491 6.52005 11.4362C6.65304 11.3815 6.77379 11.3007 6.8752 11.1987C6.97661 11.0967 7.05666 10.9757 7.11065 10.8424C7.16465 10.7091 7.1915 10.5662 7.18964 10.4224C7.18778 10.2786 7.15725 10.1366 7.09983 10.0048C7.04241 9.87289 6.95926 9.75384 6.85524 9.65452L4.37872 7.17385H21.2267C21.5137 7.17385 21.7889 7.05983 21.9918 6.85691C22.1948 6.65399 22.3088 6.37871 22.3088 6.09174C22.3088 5.80476 22.1948 5.52961 21.9918 5.32669C21.7889 5.12377 21.5137 5.00975 21.2267 5.00975H4.38928L6.85524 2.53743C7.01266 2.38611 7.12057 2.19058 7.16476 1.97674C7.20895 1.76289 7.18734 1.54069 7.10279 1.33937C7.01824 1.13804 6.8747 0.967033 6.69107 0.848867C6.50745 0.730701 6.29234 0.670972 6.07407 0.67743ZM16.8944 11.4892C16.6806 11.4909 16.4721 11.556 16.2953 11.6762C16.1185 11.7965 15.9813 11.9664 15.901 12.1646C15.8208 12.3628 15.8012 12.5804 15.8446 12.7898C15.888 12.9991 15.9925 13.1909 16.1449 13.3409L18.6256 15.8237H1.77339C1.4908 15.8298 1.22187 15.9465 1.0242 16.1486C0.826528 16.3506 0.715838 16.622 0.715838 16.9046C0.715838 17.1873 0.826528 17.4588 1.0242 17.6608C1.22187 17.8629 1.4908 17.9794 1.77339 17.9856H18.6193L16.1449 20.4664C16.0317 20.5633 15.9398 20.6825 15.8749 20.8167C15.81 20.9508 15.7736 21.0969 15.7678 21.2458C15.7621 21.3947 15.7872 21.5431 15.8415 21.6818C15.8959 21.8206 15.9783 21.9467 16.0837 22.052C16.189 22.1574 16.315 22.2398 16.4537 22.2941C16.5925 22.3485 16.7409 22.3736 16.8898 22.3678C17.0387 22.3621 17.1848 22.3256 17.3189 22.2607C17.453 22.1958 17.5723 22.104 17.6692 21.9908L21.9931 17.6668C22.1945 17.4643 22.3075 17.1903 22.3075 16.9046C22.3075 16.619 22.1945 16.345 21.9931 16.1425L17.6692 11.8165C17.5685 11.713 17.448 11.6306 17.3149 11.5744C17.1818 11.5182 17.0388 11.4892 16.8944 11.4892Z" fill="#FF606D"/>
</svg>
