<svg width="18" height="18" viewBox="0 0 18 18" fill="none" xmlns="http://www.w3.org/2000/svg">
<g clip-path="url(#clip0_138_189)">
<path d="M12.75 1.5L14.25 1.5C14.8467 1.5 15.419 1.73705 15.841 2.15901C16.2629 2.58097 16.5 3.15326 16.5 3.75L16.5 14.25C16.5 14.8467 16.2629 15.419 15.841 15.841C15.419 16.2629 14.8467 16.5 14.25 16.5L12.75 16.5C12.5511 16.5 12.3603 16.579 12.2197 16.7197C12.079 16.8603 12 17.0511 12 17.25C12 17.4489 12.079 17.6397 12.2197 17.7803C12.3603 17.921 12.5511 18 12.75 18L14.25 18C15.2442 17.9988 16.1973 17.6033 16.9003 16.9003C17.6033 16.1973 17.9988 15.2442 18 14.25L18 3.75C17.9988 2.7558 17.6033 1.80267 16.9003 1.09966C16.1973 0.396661 15.2442 0.00119065 14.25 -3.27835e-07L12.75 -4.5897e-07C12.5511 -4.76359e-07 12.3603 0.0790166 12.2197 0.219669C12.079 0.360321 12 0.551087 12 0.749999C12 0.948912 12.079 1.13968 12.2197 1.28033C12.3603 1.42098 12.5511 1.5 12.75 1.5Z" fill="#111026"/>
<path d="M10.1531 14.0118L13.5934 10.5723C14.0139 10.1497 14.25 9.57776 14.25 8.98157C14.25 8.38537 14.0139 7.81343 13.5934 7.39082L10.1531 3.95132C10.0117 3.8147 9.82223 3.7391 9.62558 3.74081C9.42894 3.74252 9.24083 3.8214 9.10177 3.96045C8.96271 4.09951 8.88384 4.28762 8.88213 4.48427C8.88042 4.68091 8.95602 4.87036 9.09263 5.01182L12.3116 8.23157L0.749635 8.23157C0.550722 8.23157 0.359957 8.31059 0.219305 8.45124C0.0786524 8.59189 -0.000365329 8.78266 -0.000365295 8.98157C-0.00036526 9.18048 0.0786526 9.37125 0.219305 9.5119C0.359957 9.65255 0.550722 9.73157 0.749635 9.73157L12.3124 9.73157L9.09264 12.9513C9.021 13.0205 8.96387 13.1033 8.92456 13.1948C8.88525 13.2863 8.86456 13.3847 8.8637 13.4843C8.86283 13.5839 8.88181 13.6826 8.91952 13.7748C8.95723 13.867 9.01292 13.9507 9.08334 14.0211C9.15376 14.0915 9.2375 14.1472 9.32967 14.1849C9.42184 14.2226 9.5206 14.2416 9.62019 14.2408C9.71977 14.2399 9.81819 14.2192 9.90969 14.1799C10.0012 14.1406 10.084 14.0834 10.1531 14.0118V14.0118Z" fill="#111026"/>
</g>
<defs>
<clipPath id="clip0_138_189">
<rect width="18" height="18" fill="white" transform="translate(18 18) rotate(-180)"/>
</clipPath>
</defs>
</svg>
