<svg width="47" height="47" viewBox="0 0 47 47" fill="none" xmlns="http://www.w3.org/2000/svg">
<path d="M15.4375 12.75C6.47917 19.9167 5.58333 29.7708 12.75 42.3125M31.5625 34.25C40.5208 27.0833 41.4167 17.4221 34.25 4.88039M23.5 2C17.7978 2 12.3292 4.26517 8.2972 8.2972C4.26517 12.3292 2 17.7978 2 23.5C2 29.2022 4.26517 34.6708 8.2972 38.7028C12.3292 42.7348 17.7978 45 23.5 45C29.2022 45 34.6708 42.7348 38.7028 38.7028C42.7348 34.6708 45 29.2022 45 23.5C45 17.7978 42.7348 12.3292 38.7028 8.2972C34.6708 4.26517 29.2022 2 23.5 2ZM23.5 10.0625C19.9362 10.0625 16.5183 11.4782 13.9983 13.9983C11.4782 16.5183 10.0625 19.9362 10.0625 23.5C10.0625 27.0638 11.4782 30.4817 13.9983 33.0017C16.5183 35.5218 19.9362 36.9375 23.5 36.9375C27.0638 36.9375 30.4817 35.5218 33.0017 33.0017C35.5218 30.4817 36.9375 27.0638 36.9375 23.5C36.9375 19.9362 35.5218 16.5183 33.0017 13.9983C30.4817 11.4782 27.0638 10.0625 23.5 10.0625Z" stroke="#2F5DF2" stroke-width="3" stroke-linejoin="round"/>
</svg>
